<?xml version="1.0" encoding="UTF-8"?>
<svg width="277px" height="70px" viewBox="0 0 277 70" version="1.1" xmlns="http://www.w3.org/2000/svg" xmlns:xlink="http://www.w3.org/1999/xlink">
    <!-- Generator: Sketch 54.1 (76490) - https://sketchapp.com -->
    <title>blessthisstuff</title>
    <desc>Created with Sketch.</desc>
    <g id="blessthisstuff" stroke="none" stroke-width="1" fill="none" fill-rule="evenodd">
        <g id="image2vector" transform="translate(20.000000, 19.000000)" fill="#090909">
            <path d="M0.260661638,0.336888835 C0.0538342905,0.542439505 -0.0326409367,0.968667952 0.0110424255,1.56485388 C0.0475938102,2.06671785 0.0868196865,8.84988998 0.0975176527,16.6376799 L0.118022088,30.7984304 L2.95387464,30.7388118 L5.7897272,30.6791932 L5.89670686,29.6585585 C6.02686545,28.422585 6.12760463,28.3976698 7.25713157,29.3222029 C12.4563432,33.5791484 19.0872993,31.0413539 21.5228696,23.8622076 C22.5989067,20.687295 22.0408294,14.8909441 20.3719467,11.9117941 C17.7393555,7.21260325 11.4917432,6.07896016 7.26872103,9.53238939 C5.85837248,10.6856087 5.89670686,10.8048459 5.89670686,5.27989305 L5.89670686,0.28438888 L5.41529838,0.155363567 C4.37135517,-0.124042972 0.588732603,0.00943148931 0.260661638,0.336888835 M23.3415238,0.209643181 L22.6996459,0.345787132 L22.6996459,15.5120453 L22.6996459,30.6791932 L25.5889883,30.6791932 L28.4792221,30.6791932 L28.4792221,15.4221725 L28.4792221,0.166041524 L26.2317577,0.119770377 C24.9952511,0.0948551446 23.6945567,0.134897483 23.3415238,0.209643181 M104.946502,0.195405905 L104.358114,0.263032966 L104.358114,4.06794494 C104.358114,8.50463604 104.40358,8.40497511 102.39682,8.31065316 L101.039961,8.24658542 L100.976665,6.91095097 C100.888407,5.07345255 100.913369,5.05120681 97.7369642,9.83404168 L94.9091351,14.0927668 L94.9777804,21.2105149 L95.0464257,28.3291529 L95.6214414,29.3052961 C96.4826277,30.7663965 96.7679068,30.816227 103.929304,30.7423711 L110.029819,30.6791932 L110.146605,23.9494109 C110.223274,19.4922537 110.355215,16.8912814 110.535298,16.2488243 C111.492766,12.8345476 116.658101,11.870862 118.377799,14.7850544 C118.778081,15.4631046 118.812849,16.0023415 118.912697,23.0942845 L119.019677,30.6791932 L121.66564,30.7388118 C125.206667,30.8197863 124.866115,31.6233026 124.894643,23.1369963 C124.927628,13.2954794 124.557657,11.3075997 122.401125,9.71569432 C119.270187,7.40480648 114.259973,7.57209447 111.536449,10.0769652 C110.100247,11.3983624 110.136799,11.5167097 110.136799,5.57531653 C110.136799,1.46519295 110.075285,0.225660117 109.869349,0.197185565 C109.376351,0.128668675 105.542022,0.126889015 104.946502,0.195405905 M126.344217,0.166931354 L125.53563,0.261253306 L125.59536,2.86489513 L125.65509,5.46853696 L128.544433,5.46853696 L131.434666,5.46853696 L131.494397,2.85154769 C131.527382,1.41269299 131.527382,0.226549946 131.494397,0.216761819 C131.218924,0.134007653 126.976289,0.0930754851 126.344217,0.166931354 M213.957887,0.367143046 C211.582047,1.21604062 210.585353,2.82485279 210.218947,6.39929887 L209.986267,8.67370369 L205.43874,8.73154262 C202.014499,8.77425445 200.892104,8.8534493 200.892995,9.05188133 C200.925089,21.4961503 200.712021,24.3293682 199.652923,25.5208502 C198.534094,26.7781796 195.565408,27.3334334 194.056995,26.5655103 C192.504007,25.7762313 192.450517,25.4674604 192.330165,16.5780613 L192.223185,8.67370369 L187.407317,8.56692412 L182.59145,8.46014455 L182.531719,5.52192674 L182.471989,2.58459876 L179.594236,2.58459876 L176.716483,2.58459876 L176.657644,5.62870631 L176.597914,8.67370369 L175.171518,8.73599177 L173.745123,8.79916969 L173.673803,10.0182364 C173.633686,10.6882782 173.631011,11.5976842 173.667563,12.0381499 L173.734425,12.8398865 L175.219659,12.8398865 L176.704894,12.8398865 L176.705785,20.3705157 C176.707568,31.1757182 176.810982,31.359913 182.986383,31.5841501 C186.255503,31.7033873 186.095034,31.8181753 186.1405,29.3337707 C186.183292,26.9712727 186.285814,27.110976 184.481424,27.0753828 C182.314194,27.0326709 182.271402,26.7799593 182.673467,16.3778496 L182.805409,12.973361 L184.089165,12.9110729 C186.540782,12.7927256 186.297403,12.0603957 186.392794,19.8375076 C186.484618,27.4135181 186.492641,27.4624587 188.021559,29.4352112 C190.607792,32.7711829 197.741553,32.7320304 200.196736,29.368474 C200.69954,28.6797458 201.139049,28.8586016 200.97323,29.6843636 C200.776209,30.6711848 201.180057,30.8064389 204.132696,30.7388118 L206.77866,30.6791932 L206.833933,21.8663195 L206.890097,13.0534457 L207.423212,13.0267508 C207.715623,13.0116237 208.412774,12.9875983 208.972634,12.973361 L209.988941,12.9466661 L210.095921,21.8129297 L210.2029,30.6791932 L213.092243,30.6791932 L215.982477,30.6791932 L216.089456,21.8129297 L216.196436,12.9466661 L219.620677,12.9466661 L223.045809,12.9466661 L223.152789,21.8129297 L223.259768,30.6791932 L226.202601,30.737922 C227.821559,30.7708457 229.16772,30.7708457 229.193574,30.737922 C229.219427,30.7058881 229.291638,26.6491543 229.354043,21.7230569 L229.467263,12.7678103 L230.964978,12.8078527 C233.013639,12.8621323 233.028794,12.8452255 232.953909,10.5779393 L232.891504,8.67370369 L231.126339,8.61141561 L229.360284,8.54912753 L229.360284,7.36921329 C229.360284,5.34574045 229.741844,4.94264758 231.661238,4.93819843 L232.998484,4.93463911 L232.998484,2.58904791 C232.998484,-0.215695436 233.182132,-0.0831108039 229.507381,0.0637111036 C225.120323,0.239897393 223.642221,1.74993847 223.381012,6.32366334 L223.259768,8.46014455 L219.674167,8.51887332 L216.089456,8.57671225 L216.089456,7.33717942 C216.089456,5.50946913 216.41931,5.14819825 218.091759,5.14819825 C218.845966,5.14819825 219.540442,5.03696953 219.684865,4.89192729 C219.968361,4.60896143 220.047704,0.720405454 219.778472,0.323541388 C219.514589,-0.0662040388 215.075824,-0.0332803383 213.957887,0.367143046 M36.7193306,7.6957808 C34.5422945,8.12467874 32.1067242,9.75840615 30.888939,11.6048029 C27.8756785,16.1740786 28.6370171,25.6418671 32.2663022,28.7420339 C37.1240704,32.8921998 45.7154288,31.9649972 49.1476929,26.9196626 C50.1853957,25.3953842 50.089114,25.4025028 50.7479304,26.7915271 C53.9689097,33.5827077 68.7508246,33.2232165 70.67735,26.3074597 C71.0696088,24.8988592 71.2015504,24.8828423 71.6089646,26.1926717 C72.578022,29.3035164 76.0405971,31.3296588 80.8127816,31.5779213 L83.060246,31.6953788 L84.340436,29.7982618 C85.0438272,28.7553813 85.6946202,27.8691109 85.7846614,27.8299584 C85.8755941,27.7908059 85.9495884,27.6653399 85.9495884,27.5514417 C85.9495884,27.4375435 86.3213427,26.7968661 86.7760063,26.1268243 C87.9028587,24.4672918 90.4445172,20.0635244 90.4445172,19.7698806 C90.4445172,19.3747962 88.3503903,18.497424 85.6286494,17.7508569 C78.6196985,15.8288247 78.0304189,15.5805622 78.0304189,14.5528088 C78.0304189,11.6359469 84.2423713,11.3956929 85.4441095,14.2662836 L85.746327,14.9879355 L88.5777221,14.9292068 L91.4082257,14.8695882 L91.3547358,14.0180211 C90.8287525,5.55307078 73.1191608,5.71590963 72.120684,14.1942074 C71.5831112,18.7599238 73.6487102,20.5084393 81.8834697,22.4553867 C85.5082973,23.3122928 86.707361,24.2448344 85.9406734,25.6089434 C84.5766827,28.0337294 78.8916051,27.5158485 77.6025002,24.8490288 L77.0667104,23.7420806 L74.1176377,23.7385212 C71.9441675,23.7367416 71.1462776,23.6646654 71.0883302,23.468013 C71.0446469,23.3211911 70.8841774,22.720556 70.7317314,22.1332684 C70.0809384,19.6203892 68.2854631,18.5961951 61.5537678,16.9001797 C57.4582297,15.8679772 56.4472719,15.1552235 57.0436835,13.7181485 C57.9993685,11.416159 62.6306964,11.8148027 64.2255849,14.33747 L64.7649407,15.1899269 L66.5515011,15.1899269 C67.5348225,15.1899269 68.796291,15.126749 69.3561512,15.0502236 L70.374241,14.9114102 L70.2458654,13.9815381 C69.1511069,6.00866361 53.2387735,5.49612168 51.1384062,13.3657759 C49.8840696,18.0703058 51.9924605,20.1925497 59.9758178,22.2578445 C64.4270633,23.4101741 65.0234749,23.7669958 64.8166475,25.1604692 C64.34772,28.3202546 58.175885,27.7747889 56.2012187,24.3996647 C56.0612536,24.1603005 54.9138968,24.0864447 50.3405162,24.0232667 L44.6536556,23.9449617 L43.9698773,24.6941984 C40.7854493,28.1876699 35.4364662,26.5450442 35.3508825,22.0478447 L35.328595,20.8510237 L42.8091479,20.7949644 C51.182981,20.7317865 50.6257953,20.8572525 50.6266868,19.0348812 C50.6293613,10.8609052 44.7936207,6.10298557 36.7193306,7.6957808 M140.424524,8.1264584 C131.497071,9.56442326 129.862957,19.1692455 138.148532,21.5032689 C138.694128,21.6563196 140.565381,22.1733107 142.306475,22.6511493 C145.986575,23.6619959 146.683726,23.9752159 146.866483,24.7048763 C147.730344,28.140509 140.021567,28.5391527 138.42133,25.1417827 L137.960426,24.16297 L135.172714,24.16297 C131.959758,24.16297 131.970456,24.1558514 132.382328,25.9951295 C133.372781,30.4095748 139.195149,32.880632 145.851067,31.7105059 C146.590119,31.5805908 146.788922,31.3091927 152.10492,23.1307675 C153.453755,21.0547947 151.456802,19.3667877 145.88227,17.8718737 C139.408217,16.1358159 139.188017,16.0477228 138.951771,15.1098422 C138.176168,12.0230228 144.186642,11.5451843 146.170223,14.535902 L146.744348,15.403486 L149.551672,15.403486 L152.358105,15.403486 L152.256475,14.3454785 C151.869565,10.3261175 145.982118,7.23128968 140.424524,8.1264584 M160.07758,11.3414133 C155.582651,18.1904328 155.048644,19.0562371 155.152058,19.3240759 C155.457841,20.1213633 159.188757,21.6118281 163.806712,22.7828441 C167.606273,23.7465297 168.52719,24.4316986 167.936127,25.8554262 C166.866331,28.433263 160.780079,27.8780092 159.544464,25.0901726 L159.133484,24.16297 L156.388564,24.16297 L153.644536,24.16297 L153.523292,24.9068677 C153.099831,27.5105095 155.658428,30.3828799 159.219068,31.302074 C167.826473,33.5248687 174.457429,30.2476258 174.092807,23.9511905 C173.905592,20.7219984 172.461367,19.3516606 167.928995,18.0978905 C167.281768,17.9190347 165.523736,17.4340775 164.023346,17.0203067 C161.045746,16.1998837 160.283515,15.821706 160.094518,15.0724694 C159.383995,12.2454803 165.718974,11.5959046 167.262155,14.33747 C167.801511,15.294037 168.241911,15.4381894 170.469762,15.3865793 C173.74334,15.3100539 173.845862,15.2272997 173.153169,13.1993778 C172.139537,10.2300159 168.26509,8.15404312 163.71578,8.14336517 L162.178838,8.13980585 L160.07758,11.3414133 M125.64885,9.04120338 C125.590902,9.1915846 125.568615,14.1212414 125.599817,19.9967872 L125.65509,30.6791932 L128.437453,30.6791932 L131.220707,30.6791932 L131.220707,19.783228 L131.220707,8.88726283 L128.487377,8.82764424 C126.419103,8.78226292 125.728193,8.83387305 125.64885,9.04120338 M41.1072798,12.4332344 C42.5657692,12.8292086 43.7710734,14.3036565 44.1098423,16.1073414 L44.2587224,16.8984371 L39.8404623,16.8984 C34.8275736,16.8984 34.9060254,16.9286542 35.5443374,15.2611133 C36.4260281,12.9573441 38.7278738,11.787218 41.1072798,12.4332344 M12.8049186,12.9404373 C16.9708849,14.677385 17.0974775,24.0704277 12.9787605,25.8892397 C9.03121098,27.6315264 5.58824883,24.670173 5.62390872,19.5634401 C5.66046011,14.5501393 9.0873753,11.3894641 12.8049186,12.9404373 M104.307298,19.4094995 L104.251134,26.1926717 L102.645548,26.1926717 L101.039961,26.1926717 L100.983797,19.4094995 L100.926741,12.6263274 L102.645548,12.6263274 L104.363463,12.6263274 L104.307298,19.4094995" id="path0"></path>
        </g>
    </g>
</svg>