<?xml version="1.0" encoding="UTF-8"?>
<svg width="224px" height="70px" viewBox="0 0 224 70" version="1.1" xmlns="http://www.w3.org/2000/svg" xmlns:xlink="http://www.w3.org/1999/xlink">
    <!-- Generator: Sketch 54.1 (76490) - https://sketchapp.com -->
    <title>business-insider</title>
    <desc>Created with Sketch.</desc>
    <g id="business-insider" stroke="none" stroke-width="1" fill="none" fill-rule="evenodd">
        <path d="M46,59 L50,59 L50,40 L46,40 L46,59 Z M60,58.715 L63.0714733,58.715 L63.0714733,46.7271875 L76,59 L76,40.285 L72.9371142,40.285 L72.9371142,52.0679687 L60,40 L60,58.715 Z M84.1613344,54.1134375 C85.8901287,55.4642188 87.9652738,56.245 90.1899123,56.245 C92.3568257,56.245 93.8769213,55.496875 93.8769213,53.8447656 C93.8769213,52.4049219 92.9074348,51.8408594 91.2097233,51.21 L88.4611181,50.2525781 C85.927132,49.3500781 84,48.0319531 84,45.0023438 C84,41.7619531 86.9173403,40 90.4060116,40 C92.5433223,40 94.4911761,40.5388281 96.0127519,41.4932812 L96.0127519,44.7069531 C94.4304907,43.5342969 92.6987362,42.7267969 90.4740977,42.7267969 C88.5588068,42.7267969 87.1275191,43.44375 87.1275191,44.9385156 C87.1275191,46.2892969 88.0259592,46.8296094 89.6082204,47.3728906 L92.6706137,48.4505469 C95.6382785,49.4970312 97,51.1194531 97,53.7883594 C97,57.1460156 94.0545372,59 90.1899123,59 C87.6500057,59 85.490493,58.2875 84.1613344,57.3879687 L84.1613344,54.1134375 Z M106,59 L110,59 L110,40 L106,40 L106,59 Z M126.310876,56 C130.670189,56 133,53.4831209 133,49.5101721 C133,45.5081601 130.668575,43 126.310876,43 L122,43 L122,56 L126.310876,56 L126.310876,56 Z M120,40 L127.056087,40 C132.4877,40 136,43.7109375 136,49.4955469 C136,55.2846094 132.4877,59 127.056087,59 L120,59 L120,40 Z M154,40 L154,42.8455469 L145.288165,42.8455469 L145.288165,47.4174219 L153.101315,47.4174219 L153.101315,50.2303125 L145.286662,50.2303125 L145.286662,56.1247656 L154,56.1247656 L154,59 L142,59 L142,40 L154,40 Z M167,48.9984694 L170.635351,48.9984694 C172.787197,48.9984694 174,47.8168367 174,46 C174,44.1831633 172.787197,43 170.635351,43 L167,43 L167,49 L167,48.9984694 Z M167.056358,51.2901562 L167.056358,59 L164,59 L164,40 L170.549133,40 C174.283237,40 176.699422,41.9757031 176.699422,45.6955469 C176.699422,48.8765625 175.358382,50.7038281 172.501445,51.1728906 L179,59 L175.523121,59 L169.231214,51.2916406 L167.057803,51.2916406 L167.056358,51.2901562 Z M45.0661972,20.6740865 C46.3859155,20.1529287 47.4140845,18.5894553 47.4140845,16.4394895 C47.4140845,12.8567196 45.0661972,11 41.3098592,11 L35,11 L35,31 L41.8957746,31 C45.6521127,31 48,29.0126111 48,25.2672643 C48,23.1492061 46.7676056,21.2924865 45.0661972,20.6740865 Z M38,20 L38,14 L41.5642965,14 C43.8033283,14 45,14.8930853 45,16.9641766 C45,19.035268 43.8018154,20 41.5642965,20 L38,20 Z M38,22.0015544 L42.3991202,22.0015544 C44.7346531,22.0015544 46,23.1331606 46,25 C46,26.8326425 44.7330534,28 42.4007199,28 L38.0015997,28 L38.0015997,22 L38,22.0015544 Z M63.4992684,31 C67.9812701,31 71,28.2430291 71,22.8591612 L71,11 L67.8290898,11 L67.8290898,22.4734245 C67.8290898,26.2560365 66.3043606,28.0202587 63.4992684,28.0202587 C60.6941762,28.0202587 59.1709102,26.2560365 59.1709102,22.4734245 L59.1709102,11 L56,11 L56,22.826269 C56,28.2430291 59.0479953,31 63.4992684,31 L63.4992684,31 Z M79.1544966,29.2959311 C80.4855445,30.2436171 82.6529539,31 85.190264,31 C89.0601074,31 92,29.0428225 92,25.5110735 C92,22.7033331 90.6392412,20.9992642 87.6666667,19.8955927 L84.6034739,18.7595468 C83.0243401,18.1929954 82.1270712,17.6249724 82.1270712,16.204915 C82.1270712,14.6274005 83.5502228,13.8710176 85.4695463,13.8710176 C87.6978631,13.8710176 89.4314935,14.7215805 91.0106274,15.9532779 L91.0106274,12.576043 C89.4938864,11.568023 87.5433665,11 85.4071535,11 C81.9101817,11 79,12.861526 79,16.2681922 C79,19.4541241 80.9193235,20.8418071 83.4566335,21.7880215 L86.2123186,22.7975131 C87.9147526,23.459716 88.8744144,24.0601133 88.8744144,25.5743507 C88.8744144,27.3093223 87.3576734,28.0980796 85.190264,28.0980796 C82.9619472,28.0980796 80.8881271,27.276948 79.1544966,25.8583622 L79.1544966,29.2959311 L79.1544966,29.2959311 Z M103,11 L100,11 L100,31 L103,31 L103,11 Z M113,30.6994032 L116.071718,30.6994032 L116.071718,18.0817063 L129,31 L129,11.2991233 L125.937109,11.2991233 L125.937109,23.7016872 L113,11 L113,30.6994032 L113,30.6994032 Z M150,11 L150,13.994758 L141.288774,13.994758 L141.288774,18.8082504 L149.100387,18.8082504 L149.100387,21.7695814 L141.288774,21.7695814 L141.288774,27.9733343 L150,27.9733343 L150,31 L138,31 L138,11 L150,11 Z M158.155964,29.2959311 C159.48686,30.2436171 161.652537,31 164.191042,31 C168.058958,31 171,29.044294 171,25.5110735 C171,22.7033331 169.637911,21.0007358 166.667162,19.8955927 L163.602834,18.7610183 C162.02388,18.1929954 161.126714,17.6249724 161.126714,16.204915 C161.126714,14.6274005 162.549703,13.8710176 164.468807,13.8710176 C166.696869,13.8710176 168.430302,14.723052 170.009255,15.9532779 L170.009255,12.5775145 C168.492687,11.568023 166.54239,11 164.406421,11 C160.909849,11 158,12.861526 158,16.2681922 C158,19.4541241 159.919104,20.8418071 162.456124,21.7880215 L165.211495,22.7975131 C166.913734,23.459716 167.873286,24.0601133 167.873286,25.5743507 C167.873286,27.3093223 166.358204,28.0980796 164.189557,28.0980796 C161.961495,28.0980796 159.887911,27.2784195 158.155964,25.8583622 L158.155964,29.2959311 Z M177.154497,29.2959311 C178.485545,30.2436171 180.652954,31 183.190264,31 C187.060107,31 190,29.044294 190,25.5110735 C190,22.7033331 188.637756,21.0007358 185.666667,19.8955927 L182.601988,18.7610183 C181.02434,18.1929954 180.125586,17.6249724 180.125586,16.204915 C180.125586,14.6274005 181.550223,13.8710176 183.468061,13.8710176 C185.696378,13.8710176 187.431494,14.723052 189.009142,15.9532779 L189.009142,12.5775145 C187.493886,11.568023 185.543366,11 183.407153,11 C179.908696,11 177,12.861526 177,16.2681922 C177,19.4541241 178.919324,20.8418071 181.456634,21.7880215 L184.212319,22.7975131 C185.914753,23.459716 186.874414,24.0601133 186.874414,25.5743507 C186.874414,27.3093223 185.357673,28.0980796 183.190264,28.0980796 C180.961947,28.0980796 178.888127,27.2784195 177.154497,25.8583622 L177.154497,29.2959311 Z" fill="#111111"></path>
    </g>
</svg>