<?xml version="1.0" encoding="UTF-8"?>
<svg width="211px" height="70px" viewBox="0 0 211 70" version="1.1" xmlns="http://www.w3.org/2000/svg" xmlns:xlink="http://www.w3.org/1999/xlink">
    <!-- Generator: Sketch 54.1 (76490) - https://sketchapp.com -->
    <title>esquire</title>
    <desc>Created with Sketch.</desc>
    <g id="esquire" stroke="none" stroke-width="1" fill="none" fill-rule="evenodd">
        <path d="M42.5438937,14.1985297 C44.4675491,14.7095582 44.4675491,18.28974 42.9291859,18.494549 C37.8306107,19.5176002 34.6556909,21.4603036 34.848337,24.1198388 C35.0419183,26.7783798 38.2159029,26.9831889 39.5625552,27.392807 C40.9101426,27.801431 41.1018535,29.4379151 40.0441704,29.9489435 C38.3122259,30.7671856 33.5026199,33.7329402 33.3099738,37.1073187 C33.0827262,41.1010955 36.0042135,41.5057425 38.6011951,41.1985289 C45.7197486,40.5850959 50.5302899,33.1195072 51.49165,31.3806185 C50.5302899,30.6637868 50.5302899,28.5162743 51.107293,27.9028413 C52.3576222,26.3687617 56.301256,26.0625423 58.1295235,26.6759753 C59.957791,27.2894083 60.7274402,28.5172685 60.0541141,29.0282969 C59.3807879,29.5393254 59.2844649,30.1537526 60.1504371,30.664781 C65.5370462,34.8583958 64.8637201,37.313122 64.4793631,39.35823 C65.7287572,39.35823 68.1340278,40.2788766 69,41.1995231 C68.903677,44.2676823 67.9423169,44.8811153 67.0763446,44.166272 C66.2094372,43.4494402 64.4784279,42.5297879 63.6124557,42.2225743 C57.6479083,46.4151948 46.8737548,46.8238187 46.5847857,43.0398221 C46.2958166,39.2558254 53.1263362,38.6423925 55.7233177,38.5409821 C56.685613,37.1083129 55.5316068,34.8583958 53.2226593,33.6315298 C51.6833609,34.8583958 44.9884416,44.6067109 35.232694,45.7003515 C29.7497618,46.3137845 22.7845769,46.6219923 21.1872977,39.971663 C20.0332915,35.1656094 24.3622175,31.0743992 30.0377958,28.8244821 C23.9769253,28.8244821 22.0532699,24.4270524 24.7465745,20.8468706 C30.3267649,12.9716638 40.9082723,13.8913161 42.5438937,14.1985297 Z M55.3380255,41.6091413 C53.7024041,41.3019277 49.4698012,41.3019277 49.4698012,42.7336027 C49.4698012,44.166272 54.0876963,43.8590584 55.3380255,41.6091413 Z M84.1229956,32.272728 C82.5427517,32.0811315 77.5063242,31.5072721 76.8150875,36.1958056 C76.1238508,40.882479 80.0744606,41.265672 81.6547045,41.0750055 C83.2349484,40.882479 86.4933614,39.2566991 86.4933614,33.6120433 C86.3944762,30.7418163 87.5801391,29.6889657 90.1482755,29.5931674 C92.7164118,29.4973692 93.9011147,30.0712285 93.9011147,32.6549909 C93.9011147,35.2387533 94,54.6606847 94,55.5219389 C92.1231003,55.5219389 87.1855582,55.7126053 85.2107333,56 C85.4085038,51.4072647 86.0008553,42.1269261 86.0008553,40.6918126 C84.7172671,42.5101191 82.248016,45.1896797 77.6061695,45.0929513 C72.9652831,44.996223 68.7180176,42.893312 69.0146734,36.9603314 C69.3103691,31.029211 75.5334195,26.9145369 85.1128081,28.2538521 C86.7900172,28.5412469 86.9877877,32.5591927 84.1229956,32.272728 Z M187.295074,39.9394084 C189.531511,40.041005 189.434152,43.4581668 187.779036,43.358524 C185.347879,43.2569275 181.555576,43.1582616 179.027059,43.5587865 C171.261912,44.239679 167.528214,43.2725577 165.732258,41.9234724 C164.392853,42.9628835 162.44944,43.8977674 158.219491,43.8596687 C150.731299,43.7942171 149.564873,39.1373815 149.467514,37.3281809 C149.272794,34.4121637 150.245446,33.0064187 152.579244,31.2978378 C150.563047,31.2978378 148.50715,31.0428694 146.515529,30.646252 C146.001318,33.2555257 145.369898,34.9338231 143.342358,39.035785 C141.007615,43.7600259 137.702111,44.1605509 133.326595,43.9602884 C130.881259,43.847946 129.259227,42.6053417 128.299809,41.2699328 C124.707897,44.1781349 122.41569,43.6662445 120.879675,43.7600259 C116.84539,43.9329355 114.976651,42.1032202 114.152402,40.041005 C112.463258,42.3884721 110.993409,43.5822319 106.877834,43.7600259 C102.211184,43.9602884 98.9047349,41.2474644 99.0020946,39.035785 C99.0994543,36.8241056 99.5853077,29.7914731 99.6826674,27.8816528 C99.8773869,25.5703306 107.947846,25.5703306 107.754072,28.182535 C107.754072,28.182535 107.072554,33.7097797 106.877834,36.6238431 C106.683115,39.5369296 107.947846,39.8407425 110.184284,39.7391459 C111.717463,39.6707636 112.931151,38.5151025 113.573915,37.2764057 C113.543667,36.7332548 113.555955,36.233087 113.588093,35.8208394 L113.685453,28.5850137 C113.881118,24.9666125 121.951577,25.8712128 121.659498,28.484394 L120.493071,37.4268468 C120.157511,41.5004789 125.098281,41.0882313 127.3385,39.2868457 C127.249647,38.9625182 127.20144,38.6665205 127.20144,38.4320668 L127.20144,28.5840368 C127.105025,25.468734 135.953417,25.3681143 135.758698,27.8806759 C135.758698,27.8806759 135.175485,33.7088028 134.980765,36.8231287 C134.786991,39.9384315 135.953417,41.2455106 137.800416,40.8430318 C141.087016,40.2168452 143.141967,33.8729203 144.035219,30.0718406 C143.804581,30.0112734 143.571106,29.9516831 143.344249,29.8891621 C140.427238,29.0851815 139.74572,25.869259 142.274237,24.4625371 C144.802754,23.0558153 147.232966,25.166875 147.331271,26.6732396 C152.29,27.8289007 158.951107,26.8236807 160.020173,26.8236807 C161.089239,26.8236807 160.748953,27.1753612 160.748953,28.5820831 C160.748953,29.9897818 159.679887,30.5925231 158.609875,30.5925231 C158.124022,30.7937624 157.127739,30.3600232 156.568156,34.0096849 C155.935791,38.1302078 158.852802,40.5411727 160.798106,40.6427693 C162.114825,40.7091979 163.298265,40.4991665 164.257684,39.8583265 C164.009086,39.0211316 164.082815,38.2572035 164.055403,37.8283487 C163.958043,36.3210071 166.485615,33.0054418 170.180558,32.7035828 C164.249177,31.5977431 164.638616,28.2812009 166.875054,27.0757184 C171.25057,24.7653731 177.667804,24.161655 179.515748,24.2622746 C181.557467,24.7653731 182.044265,28.0819153 180.196321,27.8806759 C175.334952,27.4781971 173.779087,28.9855387 173.779087,30.0913784 C173.779087,31.1962412 175.528726,31.6983628 176.792512,32.0002218 C178.057243,32.3020809 178.057243,33.9100421 176.889871,34.3125209 C175.724391,34.7130459 173.779087,35.4173837 173.195874,36.7244628 C172.61266,38.0295881 173.195874,40.1396709 175.237592,40.6437462 C177.280256,41.1448909 180.001602,40.8440087 181.753131,40.5421496 C183.502771,40.2412675 185.058636,39.8397656 187.295074,39.9394084 Z M131,24 C128.790763,24 127,22.433554 127,20.5 C127,18.566446 128.790763,17 131,17 C133.209237,17 135,18.5673371 135,20.5 C135,22.4326629 133.209237,24 131,24 Z" fill="#000000" fill-rule="nonzero"></path>
    </g>
</svg>