<?xml version="1.0" encoding="UTF-8"?>
<svg width="258px" height="70px" viewBox="0 0 258 70" version="1.1" xmlns="http://www.w3.org/2000/svg" xmlns:xlink="http://www.w3.org/1999/xlink">
    <!-- Generator: Sketch 54.1 (76490) - https://sketchapp.com -->
    <title>gear-patrol</title>
    <desc>Created with Sketch.</desc>
    <g id="gear-patrol" stroke="none" stroke-width="1" fill="none" fill-rule="evenodd">
        <path d="M26.1820965,16.110364 C24.4855185,16.4858443 22.8904962,17.9106042 22.2485772,19.6239024 L22.0373195,20.1873944 L22.0134241,34.7202717 C21.985184,51.9804067 21.8657067,50.5610807 23.4900552,52.2830731 C24.9911248,53.8751962 25.3408675,53.955074 30.9981188,53.9931111 C37.2820829,54.0360386 37.8544879,53.9230142 39.4185547,52.3379552 C41.0054308,50.7295306 40.9967415,50.7903899 40.9983708,41.4925001 L41,33.9079086 L36.248061,33.9079086 L31.496122,33.9079086 L31.496122,36.6248421 L31.496122,39.3417755 L33.5337534,39.3417755 L35.5708418,39.3417755 L35.5474894,43.9377402 L35.524137,48.5337049 L31.4733127,48.5576139 L27.4230314,48.5809796 L27.4230314,34.994682 L27.4230314,21.407841 L31.4733127,21.43175 L35.524137,21.4551156 L35.5480325,24.1492269 L35.571928,26.8438815 L38.2856924,26.8438815 L41,26.8438815 L40.9983708,23.8775335 C40.9972846,21.642584 40.9646999,20.7595806 40.8664026,20.2944416 C40.4791875,18.4659454 39.1698246,16.9830431 37.3000045,16.2549049 L36.7004456,16.021792 L31.7225858,16.0038603 C27.7820065,15.9897322 26.626878,16.0120111 26.1820965,16.110364 M45,35 L45,54 L53,54 L61,54 L61,51.2857143 L61,48.5714286 L55.6666667,48.5714286 L50.3333333,48.5714286 L50.3333333,42.6 L50.3333333,36.6285714 L54.3333333,36.6285714 L58.3333333,36.6285714 L58.3333333,33.9142857 L58.3333333,31.2 L54.3333333,31.2 L50.3333333,31.2 L50.3333333,26.3142857 L50.3333333,21.4285714 L55.6666667,21.4285714 L61,21.4285714 L61,18.7142857 L61,16 L53,16 L45,16 L45,35 M69.4140752,16.1129078 C69.3909456,16.1753328 69.2200127,16.917919 69.0349764,17.7641849 C68.502997,20.1884464 68.03138,22.309268 67.2534377,25.7708702 C66.8562866,27.5372264 66.348565,29.8170962 66.1246033,30.8370665 C65.9006417,31.8570367 65.6716028,32.8748357 65.6157535,33.0990229 C65.55934,33.3226673 65.2343981,34.7682132 64.8930964,36.3103823 C64.5517947,37.8530941 64.110641,39.8479801 63.9120654,40.7436432 C63.714054,41.6393063 63.3563924,43.2471573 63.1171991,44.3170676 C62.1937099,48.4474316 61.9257457,49.654134 61.6487554,50.921633 C61.4913617,51.643049 61.2809393,52.5707388 61.1810874,52.9832867 C61.0817996,53.3958345 61,53.7931832 61,53.8664648 C61,53.9820867 61.4044849,53.996743 63.9775051,53.9761157 L66.9550102,53.9522313 L67.3594951,52.0072853 C67.5823285,50.937375 67.8356251,49.7263299 67.9225019,49.3159534 L68.0810239,48.5695675 L73.0025386,48.5695675 C75.7092589,48.5695675 77.9257457,48.5999657 77.9274381,48.6374207 C77.9296947,48.6743329 78.1779141,49.8859208 78.4797264,51.3287526 L79.0280657,53.9522313 L82.0140329,53.9761157 L85,54 L84.937381,53.6145935 C84.9024046,53.4023484 84.6857767,52.3937775 84.4550455,51.3738072 C84.2248784,50.3538369 83.889218,48.8681218 83.7092589,48.0717959 C83.5298639,47.27547 83.1028136,45.3620079 82.7609477,43.8198389 C81.7285805,39.1602194 81.4346661,37.8427804 80.9827939,35.8582081 C80.745293,34.8132678 80.4265567,33.3883492 80.2748043,32.6919033 C80.1236161,31.9949146 79.83083,30.6720473 79.6249207,29.7514142 C78.7860518,26.0031998 78.3629504,24.1065653 78.0193921,22.5589681 C77.8208166,21.663305 77.4828997,20.1569625 77.2690924,19.2113594 C77.0552852,18.2662991 76.8110147,17.1567625 76.7258303,16.7463859 L76.5706932,16 L73.0132572,16 C70.2529441,16 69.446795,16.02497 69.4140752,16.1129078 M85,35.0002714 L85,54 L87.6907119,53.9755774 L90.3808813,53.9516974 L90.4042127,46.3763372 L90.4270016,38.8009769 L92.5322571,38.8009769 L94.6369701,38.8009769 L94.9717491,40.180042 C95.1556877,40.938772 95.4926371,42.3531142 95.719983,43.3235071 C96.4090744,46.2607367 96.8426051,48.0978619 97.1605638,49.4291672 C97.3271394,50.1254838 97.6391296,51.4383364 97.8534533,52.3463159 L98.2441193,53.9972864 L101.123653,53.9972864 C103.822504,53.9972864 104.000474,53.9869746 103.958152,53.8388106 C103.933735,53.7519745 103.745456,53.0697688 103.539814,52.3235214 C103.334171,51.5772741 103.028692,50.4782553 102.861574,49.8812574 C102.693913,49.2842595 102.388434,48.1852407 102.182249,47.4389934 C101.333636,44.3655398 100.741126,42.2413128 100.054748,39.8158733 C99.8680961,39.1559193 99.7351611,38.595284 99.7595777,38.5708614 C99.7834518,38.5464387 100.033044,38.4666581 100.313564,38.3939329 C102.243562,37.8908265 103.510514,36.5926275 103.861571,34.7571304 C104.024891,33.9045089 104.053648,21.2714912 103.894126,20.3873916 C103.576167,18.6208207 102.169227,17.0143537 100.304882,16.2887299 L99.6955519,16.0515589 L92.347776,16.0260508 L85,16 L85,35.0002714 M116,35 L116,54 L118.712219,54 L121.424439,54 L121.447769,46.4222571 L121.471098,38.8450571 L126.037219,38.7934857 C131.330903,38.7332286 131.304318,38.7370286 132.652561,37.8402286 C133.70457,37.1410286 134.568856,35.9158 134.84827,34.7285714 C135.021345,33.9924571 135.060408,21.0594286 134.891675,20.2342857 C134.599239,18.8027714 133.485379,17.3620286 132.122487,16.6525143 C130.837723,15.9837143 131.099776,16.0027143 123.121,16.0010857 L116,16 L116,35 M141.277829,16.8090327 C141.168984,17.2539736 140.976673,18.0982761 140.850346,18.685381 C140.610662,19.7939349 140.051776,22.3127344 139.387993,25.2694208 C138.957691,27.1864649 138.467044,29.3894648 137.896879,31.9614402 C137.687649,32.9066682 137.343069,34.4531091 137.131583,35.3983372 C136.683233,37.3989433 136.157057,39.7560447 135.688405,41.8640878 C135.258666,43.7984954 134.570633,46.8745562 134.172476,48.6467232 C133.725819,50.6321362 133,53.9171022 133,53.9523719 C133,54.0570958 138.932312,53.9713632 138.974046,53.8660967 C138.999988,53.8015261 139.262794,52.5909613 139.559438,51.1752896 L140.097457,48.6016865 L145.001668,48.5783542 C149.612054,48.5561072 149.908698,48.5642463 149.956071,48.7140069 C150.006827,48.8746197 151.046772,53.8557871 151.046772,53.938264 C151.046772,54.0006642 156.925508,53.9941529 156.990364,53.9317527 C157.019126,53.9035369 156.981341,53.6289758 156.90577,53.3213155 C156.830199,53.0136551 156.646347,52.1921423 156.496334,51.49543 C156.346884,50.7992603 155.969029,49.0900362 155.656031,47.6971542 C155.343032,46.3048148 154.914421,44.3921117 154.702372,43.4468836 C154.490886,42.5016555 154.175067,41.0979213 154.000803,40.3268713 C153.825975,39.5558213 153.404132,37.6637374 153.062371,36.1216374 C152.43863,33.304402 152.028066,31.4616956 151.325369,28.3216067 C151.116704,27.3888587 150.779454,25.8733467 150.575864,24.9530787 C150.372274,24.0328107 150.032205,22.5064465 149.82072,21.561761 C149.60867,20.6165329 149.268601,19.0901687 149.063883,18.1704433 C148.859165,17.2501754 148.666854,16.3852537 148.635836,16.2485158 L148.57944,16 L145.02761,16 L141.475215,16 L141.277829,16.8090327 M153.023882,18.6914857 L153.047765,21.3829714 L156.41734,21.4068571 L159.787459,21.4307429 L159.787459,37.7153714 L159.787459,54 L162.500814,54 L165.214712,54 L165.237509,37.7365429 L165.260306,21.4736286 L168.629881,21.4497429 L172,21.4264 L172,18.7132 L172,16 L162.499729,16 L153,16 L153.023882,18.6914857 M174,35 L174,54 L176.707317,54 L179.414633,54 L179.437379,46.4222571 L179.460667,38.8450571 L181.58092,38.8450571 L183.701714,38.8450571 L183.941089,39.8857143 C184.073232,40.4578857 184.349975,41.6386 184.556314,42.5093429 C184.763195,43.3800857 185.091929,44.7746857 185.287977,45.6079714 C185.483485,46.4418 185.806261,47.8157714 186.004477,48.6615429 C186.203233,49.5078571 186.527093,50.8943143 186.724767,51.7433429 C186.922441,52.5923714 187.127155,53.4473714 187.179687,53.6433429 L187.275545,54 L190.115005,54 C192.085243,54 192.955007,53.9701429 192.955007,53.9022857 C192.955007,53.7958857 192.664183,52.7318857 190.955525,46.5807714 C190.755143,45.8593143 190.458362,44.7801143 190.29589,44.1829714 C190.133419,43.5858286 189.827972,42.4865429 189.617301,41.7401143 C189.40663,40.9936857 189.120138,39.9660571 188.980413,39.4557714 L188.726957,38.5280286 L188.967957,38.4764571 C190.610002,38.1252286 191.890277,37.2360286 192.443763,36.0629143 C193.015663,34.8501714 192.999957,35.0901143 192.999957,27.4901143 L192.999957,20.5686857 L192.790911,19.9433143 C192.240132,18.2946571 191.219811,17.1150286 189.795478,16.4809714 C188.716667,16 188.759993,16.0027143 181.108128,16.0010857 L174,16 L174,35 M200.140153,16.1166028 C198.290578,16.5727556 196.555414,18.2876729 196.153615,20.0574371 C195.975761,20.8404993 195.938889,48.913988 196.114574,49.7529833 C196.472451,51.461384 198.029219,53.1415468 199.809388,53.7399758 C200.521347,53.979456 208.897849,54.1016398 210.362978,53.8941989 C212.576938,53.5803223 214.402655,51.8328227 214.852713,49.596045 C215.089672,48.4187364 215.022434,20.5928736 214.781138,19.8673734 C214.225343,18.1991575 212.984701,16.912155 211.297797,16.2545348 L210.699708,16.021571 L205.684001,16.0041938 C201.581424,15.9895317 200.571775,16.0101672 200.140153,16.1166028 M218,35 L218,54 L226,54 L234,54 L234,51.2857143 L234,48.5714286 L228.666667,48.5714286 L223.333333,48.5714286 L223.333333,32.2857143 L223.333333,16 L220.666667,16 L218,16 L218,35 M99,27 L99,33 L95,33 L91,33 L91,27 L91,21 L95,21 L99,21 L99,27 M130,26.9904757 L130,32.9524831 L126,32.9765146 L122,33 L122,27.0516469 C122,23.7806262 122.027049,21.0759853 122.059931,21.0421227 C122.092814,21.00826 123.892867,20.9913287 126.059931,21.0044368 L130,21.0279222 L130,26.9904757 M188,26.9997273 L188,33 L184.0142,32.9765487 L180.028935,32.9525519 L180.005957,27.089715 C179.993132,23.8654274 180.001682,21.1761578 180.025194,21.1134391 C180.058324,21.0250875 180.943227,21 184.033971,21 L188,21 L188,26.9997273 M209,35.5 L209,49 L205,49 L201,49 L201,35.5 L201,22 L205,22 L209,22 L209,35.5 M72.987012,27.609869 C73.1353486,28.3861488 73.3352575,29.3783265 73.4309585,29.8148847 C73.7994076,31.4986763 76,42.626412 76,42.8084436 L76,43 L72.5,43 C69.0382804,43 69,42.9978834 69,42.8200851 C69,42.7216611 69.0994228,42.1956746 69.2211758,41.6516967 C69.3429288,41.1077187 69.642792,39.7102034 69.8873614,38.5460482 C70.1313991,37.3818931 70.4504026,35.873783 70.5960808,35.1948689 C70.7412274,34.5154256 71.0602309,33.0274237 71.3042686,31.88761 C71.5483062,30.7472671 71.8843233,29.1798909 72.0507367,28.4036111 C72.2176819,27.6278605 72.4037673,26.7367526 72.4643779,26.4234891 C72.6036761,25.7043587 72.6366398,25.7789704 72.987012,27.609869 M148.999516,42.9317881 C148.936005,43.0352633 142,43.0149949 142,42.9115198 C142,42.8235125 142.998192,38.0241851 143.322631,36.5536644 C143.419486,36.1136282 143.59626,35.2735592 143.715874,34.6868444 C143.835488,34.1001295 144.131346,32.6802796 144.37322,31.5313853 C144.615623,30.3819576 144.956469,28.7620912 145.130597,27.9310896 C145.304724,27.0995547 145.490496,26.2594857 145.542893,26.0642697 C145.63128,25.7373095 145.77524,26.3976304 147.339744,34.2868115 C148.274954,39.0045323 149.021745,42.8949851 148.999516,42.9317881" id="path0" fill="#050505"></path>
    </g>
</svg>