<?xml version="1.0" encoding="UTF-8"?>
<svg width="266px" height="70px" viewBox="0 0 266 70" version="1.1" xmlns="http://www.w3.org/2000/svg" xmlns:xlink="http://www.w3.org/1999/xlink">
    <!-- Generator: Sketch 54.1 (76490) - https://sketchapp.com -->
    <title>hyperbeast</title>
    <desc>Created with Sketch.</desc>
    <g id="hyperbeast" stroke="none" stroke-width="1" fill="none" fill-rule="evenodd">
        <path d="M38.0103458,21 L44,21 L44,48 L38.0103458,48 L38.0103458,36.3534698 L26.9896542,36.3534698 L26.9896542,48 L21,48 L21,21 L26.9896542,21 L26.9896542,31.3592112 L38.0103458,31.3592112 L38.0103458,21 Z M65.3508863,21 L72,21 L61.9280501,37.6407888 L61.9280501,48 L55.9567258,48 L55.9567258,37.4857713 L46,21 L52.689781,21 L59.0406674,31.6625062 L65.3508863,21 Z M86.8880599,21.0036151 C88.3232356,20.9662957 89.7515869,21.218224 91.0919726,21.7450889 C92.1615963,22.1761298 93.1252673,22.8435813 93.9143178,23.6998833 C94.6323703,24.4896678 95.173474,25.4305539 95.499831,26.4568175 C96.166723,28.5389853 96.166723,30.7850272 95.499831,32.867195 C95.1760824,33.9006554 94.6348376,34.8486899 93.9143178,35.6443512 C93.1246035,36.4982157 92.1609831,37.1633308 91.0919726,37.5924049 C89.7510911,38.1168013 88.3227873,38.3664312 86.8880599,38.327138 L80.7960049,38.327138 L80.7960049,48 L75,48 L75,21.0036151 L86.8880599,21.0036151 Z M85.2959678,33.7097788 C85.9391426,33.7127442 86.5815241,33.6631555 87.2170046,33.5614841 C87.7907559,33.4762284 88.3427429,33.2770229 88.8419912,32.9750457 C89.3183559,32.6749068 89.7069776,32.2487864 89.9669819,31.7415031 C90.2742599,31.0963164 90.4190096,30.3825787 90.3880311,29.6653766 C90.418163,28.9460777 90.2734836,28.2303703 89.9669819,27.5825094 C89.704971,27.0784697 89.3166659,26.6550231 88.8419912,26.3557074 C88.3427429,26.0537303 87.7907559,25.8545247 87.2170046,25.7692691 C86.5815241,25.6675977 85.9391426,25.6180089 85.2959678,25.6209744 L80.7960049,25.6209744 L80.7960049,33.7097788 L85.2959678,33.7097788 Z M119.704045,21 L119.704045,25.9942586 L105.794147,25.9942586 L105.794147,31.7770844 L118.559684,31.7770844 L118.559684,36.3939091 L105.794147,36.3939091 L105.794147,43.0057414 L120,43.0057414 L120,48 L100,48 L100,21 L119.704045,21 Z M136.359018,21.0006655 C137.508483,20.9900982 138.655776,21.1054086 139.781516,21.3446484 C140.717677,21.5368824 141.608469,21.9148847 142.404119,22.4575343 C143.143916,22.9754334 143.734919,23.6882285 144.115368,24.5214318 C144.550128,25.5191047 144.758638,26.6054252 144.725123,27.6982151 C144.776626,28.9043368 144.467725,30.0977424 143.839994,31.11781 C143.163155,32.0938948 142.243786,32.8649507 141.178052,33.3503265 C142.634517,33.7090297 143.918233,34.5918048 144.797244,35.8391441 C145.620415,37.1213086 146.039384,38.6333348 145.997085,40.1692819 C146.025151,41.3969997 145.759469,42.6129974 145.223417,43.7102825 C144.728342,44.6819821 144.015987,45.5188173 143.145004,46.1518867 C142.240944,46.7948605 141.233081,47.2675868 140.16835,47.5480526 C139.04479,47.8512085 137.887742,48.0031096 136.726183,47.9999518 L124,48 L124,21.0006655 L136.359018,21.0006655 Z M135.624689,31.9339263 C136.527939,31.973613 137.419023,31.7083237 138.162058,31.1785128 C138.873384,30.5828903 139.251558,29.6633583 139.17176,28.7234191 C139.191581,28.1861392 139.0788,27.6524473 138.843935,27.1721236 C138.634181,26.7814258 138.329125,26.4536639 137.958806,26.221112 C137.567952,25.9869176 137.139319,25.8269911 136.6934,25.7489786 C136.199735,25.6611501 135.699504,25.6182672 135.198516,25.6208281 L129.795953,25.6208281 L129.795953,31.9339263 L135.624689,31.9339263 Z M135.952515,43.4000234 C136.496638,43.4034706 137.039555,43.3469417 137.571972,43.2314043 C138.05652,43.1303022 138.518818,42.9382442 138.935726,42.6648442 C139.329503,42.3896041 139.651476,42.0190113 139.873307,41.5856821 C140.122462,41.0424683 140.241613,40.4457978 140.220802,39.8455333 C140.220802,38.4561121 139.840524,37.464632 139.079969,36.8710928 C138.195942,36.2444951 137.13627,35.9340542 136.063975,35.9875289 L129.776284,35.9875289 L129.776284,43.4067682 L135.952515,43.4000234 Z M169.703947,21 L169.703947,25.9942586 L155.789474,25.9942586 L155.789474,31.7770844 L168.559211,31.7770844 L168.559211,36.3939091 L155.789474,36.3939091 L155.789474,43.0057414 L170,43.0057414 L170,48 L150,48 L150,21 L169.703947,21 Z M188.035769,21 L198,48 L191.928462,48 L189.935616,41.9932584 L179.971385,41.9932584 L177.885539,48 L172,48 L182.037302,21 L188.035769,21 Z M188.361267,37.5640449 L185.039857,27.6606742 L184.966786,27.6606742 L181.499234,37.5640449 L188.361267,37.5640449 Z M205.315025,41.7775719 C205.636517,42.3836852 206.104072,42.9037596 206.677119,43.292667 C207.261339,43.6954936 207.917372,43.9875281 208.611292,44.1536681 C209.358804,44.3420625 210.127779,44.4362643 210.89961,44.4339941 C211.474066,44.4324526 212.047651,44.3900699 212.615848,44.30718 C213.21266,44.2226486 213.793348,44.0516972 214.338897,43.7999235 C214.869144,43.5671356 215.335831,43.2149652 215.700991,42.7720616 C216.073491,42.2944144 216.263819,41.7041409 216.239018,41.1034547 C216.271711,40.4508568 216.02483,39.8145289 215.557971,39.3480803 C215.022679,38.8557312 214.393044,38.4723391 213.705524,38.220102 C212.861322,37.8959891 211.994083,37.6327608 211.110735,37.4325196 C210.136837,37.2122635 209.15613,36.9586352 208.168612,36.6849837 C207.156281,36.4397545 206.160112,36.1343916 205.185626,35.7705871 C204.253886,35.4305672 203.379281,34.9558811 202.590837,34.3622829 C200.905663,33.1233282 199.948539,31.1525193 200.0301,29.0894851 C199.997819,27.8396464 200.308271,26.6042074 200.929082,25.511992 C201.492605,24.5143808 202.26836,23.6471397 203.203779,22.9690351 C204.200306,22.289335 205.311635,21.787703 206.486425,21.4873122 C207.682362,21.1650461 208.916948,21.0011788 210.157269,21.0000789 C211.533477,20.995963 212.90527,21.1528086 214.243551,21.4672889 C215.499643,21.750557 216.691208,22.2597558 217.757753,22.9690351 C218.766654,23.6622101 219.596794,24.5763197 220.182281,25.6388061 C220.822756,26.8776811 221.132064,28.2555445 221.081263,29.6434626 L215.271932,29.6434626 C215.253628,28.9473775 215.079243,28.2637684 214.761146,27.6411344 C214.484953,27.138072 214.081614,26.7129143 213.589746,26.4063653 C213.082188,26.086067 212.518929,25.8598344 211.927991,25.7389225 C211.254777,25.6115815 210.570481,25.5489897 209.88485,25.5520385 C209.397173,25.5536039 208.910996,25.6050533 208.43422,25.7055504 C207.967453,25.7994111 207.522041,25.9758266 207.119799,26.2261557 C206.733031,26.4686527 206.401485,26.7867593 206.145902,27.1605756 C205.873513,27.5878609 205.738278,28.0854434 205.757705,28.5889031 C205.737268,29.0313477 205.843418,29.470584 206.064176,29.8570443 C206.370903,30.2631265 206.78891,30.5755766 207.269629,30.758092 C208.072721,31.100997 208.904386,31.3756582 209.755451,31.5790466 C210.813344,31.8593726 212.193599,32.2086676 213.896217,32.6269317 C214.407002,32.7270482 215.115291,32.9139321 216.021083,33.1742348 C216.97576,33.4608759 217.882187,33.8836713 218.711219,34.4290272 C219.633907,35.0331595 220.419803,35.8169889 221.019968,36.7317047 C221.71159,37.8374081 222.050698,39.1202652 221.993866,40.4159887 C222.005569,41.5904457 221.759364,42.7536298 221.271956,43.8266212 C220.779304,44.8834318 220.039716,45.8117423 219.113037,46.5364388 C218.051115,47.3600918 216.833747,47.970226 215.53073,48.3318598 C213.936248,48.7893414 212.28172,49.0142344 210.620381,48.9993025 C209.1454,49.0022223 207.676077,48.8205434 206.248059,48.4586739 C204.902129,48.1251481 203.631708,47.5479007 202.5023,46.7566949 C201.418322,45.9810323 200.536321,44.9657259 199.927943,43.793249 C199.258979,42.4704657 198.942678,41.0032146 199.008529,39.5282898 L204.81786,39.5282898 C204.7916,40.3174844 204.962258,41.1010367 205.315025,41.810944 L205.315025,41.7775719 Z M223,25.9955056 L223,21 L245,21 L245,25.9955056 L236.953673,25.9955056 L236.953673,48 L231.046327,48 L231.046327,25.9955056 L223,25.9955056 Z" id="hypebeast" fill="#000000" fill-rule="nonzero"></path>
    </g>
</svg>