<?xml version="1.0" encoding="UTF-8"?>
<svg width="224px" height="70px" viewBox="0 0 224 70" version="1.1" xmlns="http://www.w3.org/2000/svg" xmlns:xlink="http://www.w3.org/1999/xlink">
    <!-- Generator: Sketch 54.1 (76490) - https://sketchapp.com -->
    <title>wired</title>
    <desc>Created with Sketch.</desc>
    <g id="wired" stroke="none" stroke-width="1" fill="none" fill-rule="evenodd">
        <g transform="translate(19.000000, 16.000000)" fill-rule="nonzero">
            <path d="M0,0 L37,0 C37,12.665122 37,25.334878 37,38 L0,38 L0,0 L0,0 Z M2.72485981,5.96414634 C4.37545171,13.6892683 5.85545171,21.4560976 7.44610592,29.195122 C7.73657321,30.1219512 7.55676012,31.3453659 8.45121495,31.9663415 C10.0649221,32.2258537 11.7201246,32.1609756 13.3476636,32.0497561 C14.2328972,32.077561 14.4449844,31.0302439 14.6063551,30.3582927 C15.7175078,24.8482927 16.9254829,19.3568293 18.0320249,13.8468293 C18.1196262,13.3370732 18.2763863,12.8412195 18.5161371,12.382439 C19.894704,18.2956098 21.0335202,24.2597561 22.3152648,30.1914634 C22.4904673,30.8217073 22.527352,31.6002439 23.1451713,31.984878 C24.9064174,32.1980488 26.7137695,32.2165854 28.470405,31.9709756 C29.1020561,31.5956098 29.1343302,30.8217073 29.2957009,30.1821951 C30.9232399,22.1141463 32.4401246,14.0136585 34.1598754,5.96414634 C32.6061059,5.97341463 31.056947,5.96878049 29.5077882,5.96878049 C28.2721495,12.9895122 27.2808723,20.0565854 25.9161371,27.0541463 C24.38081,21.1178049 23.352648,15.0378049 22.0155763,9.04585366 C21.7112773,8.02170732 21.849595,6.5295122 20.7338318,6.0104878 C19.3690966,5.92707317 17.9951402,5.92243902 16.630405,6.0104878 C15.8558255,6.07536585 15.6806231,6.99756098 15.5284735,7.60926829 C14.2928349,13.5502439 12.9972586,19.4773171 11.7892835,25.4182927 C11.6647975,25.9697561 11.4803738,26.4980488 11.2728972,27.0217073 C10.032648,20.0195122 8.85694704,12.9987805 7.78728972,5.96878049 C6.09981308,5.96414634 4.41233645,5.97341463 2.72485981,5.96414634 Z" id="Shape" fill="#231F20"></path>
            <path d="M38,0 L75,0 C75,12.665122 75,25.334878 75,38 L38,38 C38,25.334878 38,12.665122 38,0 L38,0 Z M47.4757233,5.71390244 C47.4571069,7.27097561 47.4571069,8.82341463 47.4757233,10.3804878 C49.6026415,10.3943902 51.7295597,10.385122 53.856478,10.385122 C53.8471698,16.1268293 53.8471698,21.8731707 53.856478,27.614878 C51.7295597,27.614878 49.6026415,27.6056098 47.4757233,27.6195122 C47.4571069,29.1765854 47.4571069,30.7290244 47.4803774,32.2860976 C53.4934591,32.3 59.5065409,32.3 65.5196226,32.2860976 C65.5428931,30.7336585 65.538239,29.1765854 65.5289308,27.6241463 C63.3973585,27.6056098 61.2704403,27.614878 59.143522,27.614878 C59.1528302,21.8731707 59.1528302,16.1268293 59.143522,10.385122 C61.2704403,10.385122 63.3973585,10.3943902 65.5242767,10.3804878 C65.5428931,8.82341463 65.5428931,7.26634146 65.5196226,5.71390244 C59.5065409,5.7 53.4934591,5.7 47.4757233,5.71390244 Z" id="Shape" fill="#FFFFFF"></path>
            <path d="M75,0 L112,0 C112,12.665122 112,25.334878 112,38 L75,38 C75,25.334878 75,12.665122 75,0 L75,0 Z M83.3590031,5.96878049 C83.3590031,14.6578049 83.3590031,23.3421951 83.3590031,32.0312195 C85.0649221,32.0312195 86.7754517,32.0312195 88.4859813,32.0312195 C88.4859813,28.6343902 88.4859813,25.2329268 88.4859813,21.8360976 C91.2661682,21.8453659 94.0463551,21.8221951 96.8265421,21.8407317 C97.8408723,21.7434146 99.0488474,22.4709756 99.0257944,23.592439 C99.154891,26.41 99.3946417,29.2182927 99.5698442,32.0312195 C101.197383,32.0312195 102.820312,32.0312195 104.44785,32.0358537 C103.986791,28.847561 104.553894,25.5526829 103.659439,22.4292683 C103.19838,20.7934146 101.400249,20.4273171 99.9986293,20.0195122 C101.040623,19.4634146 102.377695,19.412439 103.133832,18.3929268 C104.231153,16.9934146 104.309533,15.1258537 104.314143,13.4204878 C104.295701,11.4278049 104.341807,9.23585366 103.083115,7.56292683 C102.078006,6.17268293 100.196885,5.96878049 98.6200623,5.96878049 C93.5345794,5.96414634 88.444486,5.96878049 83.3590031,5.96878049 Z" id="Shape" fill="#231F20"></path>
            <path d="M112,0 L149,0 C149,12.665122 149,25.334878 149,38 L112,38 C112,25.334878 112,12.665122 112,0 L112,0 Z M118.653041,5.71853659 C118.634483,7.26634146 118.634483,8.81878049 118.643762,10.3665854 C119.826834,10.3897561 121.009906,10.3897561 122.192978,10.3804878 C122.216176,16.1268293 122.216176,21.8731707 122.192978,27.6195122 C121.009906,27.6102439 119.831473,27.6102439 118.648401,27.6241463 C118.634483,29.1765854 118.629843,30.7290244 118.653041,32.2814634 C126.113354,32.3046341 133.569028,32.3046341 141.029342,32.2814634 C141.066458,29.2090244 141.04326,26.1365854 141.04326,23.0641463 C139.424075,23.0502439 137.80489,23.0502439 136.185705,23.0687805 C136.181066,24.5841463 136.181066,26.0995122 136.185705,27.614878 C133.234984,27.6195122 130.284263,27.5963415 127.333542,27.6287805 C127.287147,25.3534146 127.319624,23.0734146 127.310345,20.7980488 C129.630094,20.7980488 131.949843,20.7980488 134.269592,20.7980488 C134.269592,19.3197561 134.269592,17.8414634 134.269592,16.3631707 C131.949843,16.3631707 129.630094,16.3631707 127.310345,16.3631707 C127.310345,14.3704878 127.305705,12.3778049 127.314984,10.385122 C130.191473,10.3897561 133.063323,10.3897561 135.939812,10.385122 C135.930533,11.7104878 135.930533,13.0358537 135.935172,14.3658537 C137.52652,14.3658537 139.117868,14.3658537 140.709216,14.3658537 C140.704577,11.4834146 140.713856,8.60097561 140.704577,5.71853659 C133.350972,5.69536585 126.002006,5.69536585 118.653041,5.71853659 Z" id="Shape" fill="#FFFFFF"></path>
            <path d="M149,0 L187,0 L187,38 L149,38 C149,25.334878 149,12.665122 149,0 L149,0 Z M157.479262,5.96878049 C157.479262,14.6578049 157.479262,23.3421951 157.479262,32.0312195 C161.852185,32.0219512 166.220431,32.0497561 170.593354,32.0173171 C173.287262,31.9663415 176.425477,31.4704878 178.048369,29.0792683 C179.942523,26.0763415 179.657231,22.4014634 179.989292,19.0139024 C179.652554,15.6217073 179.951877,11.9329268 178.048369,8.92073171 C176.537723,6.68243902 173.647385,6.09390244 171.107815,6.00121951 C166.566523,5.92707317 162.020554,5.98731707 157.479262,5.96878049 Z" id="Shape" fill="#231F20"></path>
            <path d="M47.0139036,6.01058639 C53.0063564,5.9964712 58.9941746,5.9964712 64.9819928,6.01058639 C65.0051655,7.58678226 65.0051655,9.16768319 64.9866273,10.7485841 C62.8686452,10.7626993 60.7506631,10.7532892 58.6326809,10.7532892 C58.64195,16.5828614 58.64195,22.4171386 58.6326809,28.2467108 C60.7506631,28.2467108 62.8686452,28.2373007 64.9912619,28.2561209 C65.0005309,29.8323168 65.0051655,31.4132177 64.9819928,32.9894136 C58.9941746,33.0035288 53.0063564,33.0035288 47.0185381,32.9894136 C46.9953655,31.4085127 46.9953655,29.8323168 47.0139036,28.2514159 C49.1318857,28.2373007 51.2498679,28.2467108 53.36785,28.2467108 C53.358581,22.4171386 53.358581,16.5828614 53.36785,10.7532892 C51.2498679,10.7532892 49.1318857,10.7626993 47.0139036,10.7485841 C46.9953655,9.16768319 46.9953655,7.59148732 47.0139036,6.01058639 Z" id="Path" fill="#231F20"></path>
            <path d="M119.016663,6.01764091 C126.557891,5.9941197 134.09912,5.9941197 141.645109,6.01764091 C141.654631,8.94367976 141.645109,11.8697186 141.64987,14.7957575 C140.016889,14.7957575 138.383909,14.7957575 136.750928,14.7957575 C136.746167,13.4456399 136.746167,12.1002265 136.755689,10.7548131 C133.803945,10.7595174 130.856963,10.7595174 127.905219,10.7548131 C127.895698,12.7776374 127.900459,14.8004617 127.900459,16.823286 C130.280897,16.823286 132.661335,16.823286 135.041773,16.823286 C135.041773,18.3239394 135.041773,19.8245927 135.041773,21.3252461 C132.661335,21.3252461 130.280897,21.3252461 127.900459,21.3252461 C127.90998,23.6350292 127.876654,25.9495165 127.924263,28.2592996 C130.95218,28.2263699 133.980098,28.2498911 137.008015,28.2451869 C137.003254,26.7068996 137.003254,25.1686122 137.008015,23.6303249 C138.669561,23.611508 140.331107,23.611508 141.992653,23.6256207 C141.992653,26.7445335 142.016457,29.8634463 141.97837,32.9823591 C134.322881,33.0058803 126.672152,33.0058803 119.016663,32.9823591 C118.992859,31.4064378 118.99762,29.8305166 119.011902,28.2545953 C120.225926,28.2404826 121.435188,28.2404826 122.649212,28.2498911 C122.673016,22.4166304 122.673016,16.5833696 122.649212,10.7501089 C121.435188,10.7595174 120.221165,10.7595174 119.007141,10.7359962 C118.99762,9.16477916 118.99762,7.58885791 119.016663,6.01764091 Z" id="Path" fill="#231F20"></path>
            <path d="M2,6.0178293 C3.71780581,6.02702551 5.43561162,6.0178293 7.15341742,6.02242741 C8.24229979,12.9977525 9.43913171,19.9638814 10.701672,26.9116178 C10.9128777,26.392032 11.100616,25.867848 11.2273394,25.3206736 C12.4570255,19.4259031 13.7758874,13.544927 15.0337342,7.65015653 C15.1886184,7.04320669 15.3669698,6.12818382 16.1554708,6.06381035 C17.5447345,5.97644636 18.9433852,5.98104446 20.3326489,6.06381035 C21.4684658,6.5787981 21.3276621,8.05938787 21.6374303,9.07556904 C22.9985333,15.0209186 24.0451745,21.0536322 25.6080962,26.9438046 C26.9973599,20.0006662 28.0064535,12.9885563 29.2643004,6.02242741 C30.8413024,6.02242741 32.4183045,6.02702551 34,6.0178293 C32.24934,14.0047375 30.7051921,22.0422248 29.0484013,30.0475254 C28.8841302,30.6820638 28.851276,31.4499474 28.2082722,31.8223938 C26.4200645,32.0660934 24.5802288,32.047701 22.7873277,31.8361882 C22.1584042,31.4545455 22.1208566,30.6820638 21.9425051,30.0567216 C20.6377237,24.1711473 19.4784394,18.2533864 18.0750953,12.3862046 C17.8310355,12.8414169 17.6714579,13.3334142 17.5822822,13.8392057 C16.4558522,19.3063524 15.226166,24.7551067 14.0950425,30.2222534 C13.9307715,30.8889786 13.7148724,31.9281503 12.8137284,31.9005616 C11.1569375,32.0109161 9.47198592,32.0752896 7.82927545,31.8177957 C6.9187445,31.2016497 7.10178938,29.98775 6.8061015,29.068129 C5.18685832,21.3892939 3.68025814,13.6828701 2,6.0178293 Z" id="Path" fill="#FFFFFF"></path>
            <path d="M83,6.00205416 C88.3052033,6.00205416 93.6152164,5.9974323 98.9204198,6.00205416 C100.565369,6.00205416 102.527766,6.20541587 103.576301,7.59197298 C104.889375,9.26046337 104.841277,11.4466017 104.860516,13.4340003 C104.855706,15.1348437 104.77394,16.9974521 103.629209,18.3932529 C102.840402,19.4100614 101.445562,19.4609019 100.358548,20.0155247 C101.820726,20.4222481 103.696546,20.7873748 104.177525,22.4188904 C105.110625,25.534022 104.519021,28.8201624 105,32 C103.302143,31.9953781 101.609095,31.9953781 99.9112374,31.9953781 C99.7284652,29.1899109 99.4783559,26.3890656 99.3436817,23.5789765 C99.3677307,22.4604871 98.1075645,21.7348555 97.0494097,21.8319145 C94.1491036,21.8134271 91.2487976,21.8365364 88.3484915,21.8272927 C88.3484915,25.2151139 88.3484915,28.6075569 88.3484915,31.9953781 C86.5640577,31.9953781 84.779624,31.9953781 83,31.9953781 C83,23.3293962 83,14.6680361 83,6.00205416 L83,6.00205416 Z M88.3484915,10.2726501 C88.3484915,12.7823184 88.3484915,15.2919868 88.3484915,17.8016552 C91.5470048,17.7600585 94.7551377,17.8940923 97.9488413,17.7369492 C99.6659379,17.6398902 99.6899869,15.6571135 99.757324,14.4184558 C99.7044163,13.055008 99.968955,11.24324 98.6462615,10.3419779 C95.2216878,10.1709692 91.7826847,10.3234905 88.3484915,10.2726501 Z" id="Shape" fill="#FFFFFF"></path>
            <path d="M158,6.00566533 C162.438396,6.02415182 166.881363,5.96407073 171.319759,6.03801669 C173.801787,6.13044913 176.626636,6.71739517 178.103054,8.94963878 C179.963432,11.9536933 179.670891,15.6325047 180,19.0155323 C179.675462,22.3939382 179.95429,26.0588848 178.103054,29.0536961 C176.516933,31.4384532 173.449823,31.9329668 170.816954,31.9838046 C166.543112,32.016156 162.273842,31.9884263 158,31.9976695 C158,23.3321276 158,14.6712073 158,6.00566533 L158,6.00566533 Z M163.0829,10.2760444 C163.0829,16.094667 163.0829,21.9086679 163.0829,27.7272904 C165.683773,27.7226688 168.284646,27.7319121 170.890089,27.7319121 C172.13796,27.7550202 173.650945,27.4222634 174.236027,26.1651821 C175.10908,24.2194791 174.894245,22.0288301 174.96738,19.9537216 C174.87139,17.3563699 175.237066,14.6480992 174.373156,12.1524231 C173.984625,10.8768553 172.581342,10.2714228 171.351756,10.2852876 C168.595471,10.2575579 165.839186,10.2899093 163.0829,10.2760444 Z" id="Shape" fill="#FFFFFF"></path>
            <path d="M89,9.0152322 C92.010118,9.06905024 95.0244519,8.9075961 98.0261383,9.08862044 C99.1854975,10.0426676 98.9536256,11.9605471 99,13.4038493 C98.9409781,14.7150526 98.9198988,16.8139564 97.4148398,16.9167 C94.6155143,17.0830466 91.8035413,16.9411627 89,16.9851957 C89,14.3285412 89,11.6718867 89,9.0152322 Z" id="Path" fill="#231F20"></path>
            <path d="M162,11.002341 C164.783077,11.0158411 167.566154,10.984341 170.349231,11.0113411 C171.590769,10.997841 173.007692,11.5873438 173.4,12.8293498 C174.272308,15.2593614 173.903077,17.8963741 174,20.4253862 C173.926154,22.4458959 174.143077,24.5789061 173.261538,26.4734152 C172.670769,27.697421 171.143077,28.0214226 169.883077,27.9989225 C167.252308,27.9989225 164.626154,27.9899224 162,27.9944224 C162,22.3288953 162,16.6678682 162,11.002341 Z" id="Path" fill="#231F20"></path>
        </g>
    </g>
</svg>